<svg xmlns="http://www.w3.org/2000/svg" width="60" height="60"><defs><filter id="b" x="-.084" width="1.168" y="-2.179" height="5.357" color-interpolation-filters="sRGB"><feGaussianBlur stdDeviation="1.383"/></filter><filter id="a" x="-.107" width="1.214" y="-.137" height="1.274" color-interpolation-filters="sRGB"><feGaussianBlur stdDeviation="2.169"/></filter><filter id="c" x="-.2" width="1.401" y="-.163" height="1.327" color-interpolation-filters="sRGB"><feGaussianBlur stdDeviation="1.33"/></filter></defs><g fill="none" stroke="#000" transform="translate(0 -992.362)"><rect transform="matrix(.88858 0 0 .88978 -53.028 113.321)" rx="7.955" ry="7.829" y="995.116" x="69.069" height="38.007" width="48.74" stroke-width="2.828" filter="url(#a)"/><rect transform="matrix(.90165 0 0 1.13133 -54.186 -140.704)" ry="0" rx="0" y="1048.65" x="73.737" height="1.524" width="39.404" opacity=".5" stroke-width="2.861" filter="url(#b)"/></g><g fill="none" stroke="#fff" transform="translate(0 -992.362)"><rect rx="6.952" ry="6.842" y="998.795" x="8.702" height="33.215" width="42.595" stroke-width="4.807" stroke-linecap="round" stroke-linejoin="round"/><rect ry="0" rx="0" y="1045.579" x="12.782" height="1.332" width="34.437" stroke-width="2.845"/></g><text style="line-height:125%" x="408.929" y="758.434" font-weight="400" font-size="40" font-family="sans-serif" letter-spacing="0" word-spacing="0" transform="translate(0 -992.362)"/><path d="M30 1005.628c-.91 0-1.558.644-1.878 1.448h-6.086v18.1h15.928v-18.1h-6.086c-.32-.804-.967-1.448-1.878-1.448zm0 1.448c.402 0 .724.322.724.724v.724h2.172v1.448h-5.792v-1.448h2.172v-.724c0-.402.322-.724.724-.724zm-6.516 1.448h2.172v2.896h8.688v-2.896h2.172v15.204H23.484zm1.448 4.344v3.62h3.62v-3.62zm5.068.724v1.448h5.068v-1.448zm-3.62.724h.724v.724h-.724zm-1.448 3.62v3.62h3.62v-3.62zm5.068.724v1.448h5.068v-1.448z" filter="url(#c)" opacity=".5" transform="translate(0 -992.362)"/><path d="M30 13.266c-.91 0-1.558.644-1.878 1.448h-6.086v18.1h15.928v-18.1h-6.086c-.32-.804-.967-1.448-1.878-1.448zm0 1.448c.402 0 .724.322.724.724v.724h2.172v1.448h-5.792v-1.448h2.172v-.724c0-.402.322-.724.724-.724zm-6.516 1.448h2.172v2.896h8.688v-2.896h2.172v15.204H23.484zm1.448 4.344v3.62h3.62v-3.62zM30 21.23v1.448h5.068V21.23zm-3.62.724h.724v.724h-.724zm-1.448 3.62v3.62h3.62v-3.62zm5.068.724v1.448h5.068v-1.448z" fill="#fff"/></svg>