<?xml version="1.0" encoding="utf-8"?>
<svg xmlns="http://www.w3.org/2000/svg" width="612.5" height="304.5">
  <style>
    .FaderLed{fill:currentColor}.Cuelist-Box{font-size:8.36090279px;fill:currentColor;line-height:125%;fill-opacity:1}.Cuelist-Line{text-align:center;text-anchor:middle;stroke-width:.20902258px}.BlackAverageButton,.BlackLargeButton,.BlackSquare,.EncoderFader,.GreyButton{opacity:1;stroke-linejoin:round;stroke-opacity:1;fill-opacity:1;stroke:#000;stroke-miterlimit:4;stroke-dasharray:none;stroke-width:1;fill:#000}.GreyButton{vector-effect:none;stroke-dashoffset:0;stroke:#515151;stroke-linecap:butt;fill:#eaeaea}
  </style>
  <rect width="607.5" height="268.2" x="2.5" y="2.5" fill="#c1c1c1" stroke="#c1c1c1" stroke-width="5" rx="0" ry="0"/>
  <rect width="607.5" height="5.8" x="2.5" y="2.5" stroke="#000" stroke-width="5" rx="0" ry="0"/>
  <rect width="52.7" height="25.3" x="17.4" y="20" stroke="#000" stroke-linejoin="round" ry="1"/>
  <rect width="56.4" height="28.5" x="15.5" y="57.1" stroke="#000" stroke-linejoin="round" class="BlackLargeButton" ry="4"/>
  <rect width="35.3" height="28.7" x="26" y="93.7" stroke="#000" stroke-linejoin="round" class="BlackAverageButton" ry="4"/>
  <rect width="35.3" height="28.7" x="26" y="130.3" stroke="#000" stroke-linejoin="round" class="BlackAverageButton" ry="4"/>
  <rect width="56.4" height="28.5" x="15.5" y="166.9" stroke="#000" stroke-linejoin="round" class="BlackLargeButton" ry="4"/>
  <rect width="56.4" height="28.5" x="15.5" y="199.3" stroke="#000" stroke-linejoin="round" class="BlackLargeButton" ry="4"/>
  <rect width="56.4" height="28.5" x="15.5" y="231.7" stroke="#000" stroke-linejoin="round" class="BlackLargeButton" ry="4"/>
  <rect width="56.4" height="28.5" x="406.8" y="66.6" stroke="#000" stroke-linejoin="round" class="BlackLargeButton" ry="4"/>
  <rect width="35.3" height="28.7" x="404" y="19.9" stroke="#000" stroke-linejoin="round" class="BlackAverageButton" ry="4"/>
  <rect width="35.3" height="28.7" x="559.2" y="19.9" stroke="#000" stroke-linejoin="round" class="BlackAverageButton" ry="4"/>
  <rect width="35.3" height="28.7" x="442.8" y="19.9" stroke="#000" stroke-linejoin="round" class="BlackAverageButton" ry="4"/>
  <rect width="35.3" height="28.7" x="520.4" y="19.9" stroke="#000" stroke-linejoin="round" class="BlackAverageButton" ry="4"/>
  <rect width="35.3" height="28.7" x="481.6" y="19.9" stroke="#000" stroke-linejoin="round" class="BlackAverageButton" ry="4"/>
  <rect width="28.1" height="121.2" x="471" y="134.7" stroke="#000" stroke-linejoin="round" class="EncoderFader" ry="3"/>
  <rect width="28.1" height="121.2" x="503.2" y="134.7" stroke="#000" stroke-linejoin="round" class="EncoderFader" ry="3"/>
  <rect width="28.1" height="121.2" x="535.4" y="134.7" stroke="#000" stroke-linejoin="round" class="EncoderFader" ry="3"/>
  <rect width="28.1" height="121.2" x="567.6" y="134.7" stroke="#000" stroke-linejoin="round" class="EncoderFader" ry="3"/>
  <rect width="29.1" height="28.8" x="470.5" y="102.1" stroke="#000" stroke-linejoin="round" class="BlackSquare" ry="4"/>
  <rect width="29.1" height="28.8" x="567.1" y="102.1" stroke="#000" stroke-linejoin="round" class="BlackSquare" ry="4"/>
  <rect width="29.1" height="28.8" x="502.7" y="102.1" stroke="#000" stroke-linejoin="round" class="BlackSquare" ry="4"/>
  <rect width="29.1" height="28.8" x="534.9" y="102.1" stroke="#000" stroke-linejoin="round" class="BlackSquare" ry="4"/>
  <rect width="29.1" height="28.8" x="486.6" y="66.5" stroke="#000" stroke-linejoin="round" class="BlackSquare" ry="4"/>
  <rect width="29.1" height="28.8" x="518.8" y="66.5" stroke="#000" stroke-linejoin="round" class="BlackSquare" ry="4"/>
  <rect width="29.1" height="28.8" x="551" y="66.5" stroke="#000" stroke-linejoin="round" class="BlackSquare" ry="4"/>
  <text x="43.7" y="41.8" fill="#009bff" class="Bank" font-family="sans-serif" font-weight="400" letter-spacing="0" transform="scale(1.0095 .99058)" word-spacing="0">
    <tspan x="43.7" y="41.8" font-family="Digital-7" font-size="24.5" style="line-height:1.25;text-align:center" text-anchor="middle">001</tspan>
  </text>
  <g>
    <path fill="#fff" d="M37.7 72.2H25.5v-1.6h12.2z"/>
  </g>
  <g>
    <path fill="#fff" d="M64.8 72.4h-5.4v5.4h-1.6v-5.4h-5.3V71h5.3v-5.4h1.6V71h5.4z"/>
  </g>
  <g fill="#fff">
    <path d="M39.7 109.1q0 .4-.2.7l-.4.6-.7.3-1 .1h-1.9v-5.5h2.6l.5.2.5.5.1.5q0 .4-.2.7-.2.3-.5.4.5.2.9.6.3.3.3 1zm-1.2-2.5l-.1-.3-.2-.2-.4-.1h-1.5v1.5h1.5q.2 0 .3-.2.2 0 .3-.2v-.5zm.4 2.5v-.5l-.4-.3-.5-.1h-1.7v2H38l.5-.3.3-.3.1-.5zm5.2-.3h-3v.7l.4.4.5.3h1.4l.6-.4v.7l-.7.3-.8.1q-1 0-1.6-.6-.5-.5-.5-1.5t.5-1.6q.6-.6 1.5-.6.8 0 1.3.5.4.4.4 1.3zm-.7-.5q0-.6-.2-.9-.3-.3-.9-.3-.5 0-.9.4-.3.3-.3.8zm5 2.5h-.7v-.4l-.3.1-.3.2-.4.2h-.5q-.6 0-1-.4-.3-.3-.3-.9 0-.5.2-.7l.5-.5q.4-.2 1-.2l1-.1v-.5l-.3-.3H47l-.4-.1H46l-.7.3v-.7l.5-.1.8-.1h.7l.6.3.3.4q.2.3.2.7zm-.7-1v-1.2l-.8.1-.7.1q-.3 0-.4.3-.2.1-.2.5 0 .3.2.5t.6.2q.4 0 .7-.2l.6-.3zm4.1 1H51q-.6 0-1-.3-.3-.3-.3-1v-2.2h-.5v-.6h.5v-1.2h.7v1.2h1.4v.6h-1.4v2.4l.1.3.2.2h1.1z"/>
  </g>
  <g fill="#fff">
    <path d="M36.6 145.9l-.1.6-.4.6-.7.3q-.4.2-1 .2t-1-.2q-.5 0-1-.3v-.9l1 .5 1 .2q.7 0 1-.2.5-.3.5-.7 0-.4-.2-.6l-.6-.2-.6-.1-.7-.2q-.7-.1-1-.5-.4-.4-.4-1 0-.7.6-1.1.6-.5 1.5-.5l1 .1.9.3v.9l-.9-.5-1-.1q-.6 0-1 .2-.3.3-.3.6l.1.6q.2.2.7.3l.6.1q.5 0 .8.2.6.1 1 .5.2.3.2.9zm4.6-.4h-3v.6l.4.5.5.3h.5l.9-.1.6-.4v.8l-.7.3h-.8q-1 0-1.6-.5-.5-.6-.5-1.6t.5-1.6q.6-.6 1.5-.6.8 0 1.3.5.4.5.4 1.4zm-.7-.6q0-.5-.2-.8-.3-.3-.9-.3-.5 0-.9.3-.3.3-.3.8zm2.5 2.6h-.7v-5.8h.7zm4.8-2h-3l.1.6.3.5.5.3h.6l.8-.1.6-.4v.8l-.7.3h-.7q-1 0-1.6-.5-.6-.6-.6-1.6t.5-1.6q.6-.6 1.5-.6.8 0 1.3.5.4.5.4 1.4zm-.6-.6q0-.5-.3-.8-.3-.3-.8-.3-.6 0-1 .3-.3.3-.3.8zm4.8 2.3l-.7.3h-1.5q-.4-.2-.6-.5-.3-.2-.4-.7-.2-.4-.2-1 0-1 .6-1.5.5-.6 1.4-.6l.7.1.7.3v.7l-.7-.3-.7-.2q-.6 0-1 .4-.3.4-.3 1.2 0 .7.4 1.1.3.4 1 .4h.3q.3 0 .4-.2l.3-.1.2-.2zm3 .2l-.4.1h-.4q-.7 0-1-.3-.3-.3-.3-1v-2.3h-.5v-.6h.5v-1.2h.7v1.2H55v.6h-1.4v2.7l.3.3h.8l.3-.1z"/>
  </g>
  <rect width="607.5" height="30" x="2.5" y="272" stroke="#000" stroke-width="5" rx="0" ry="0"/>
  <g fill="#fff" stroke-width=".9">
    <path d="M25 181.6l-.1.7-.5.5q-.3.3-.7.4l-1 .1h-1l-1-.4v-1q.4.4 1 .6l1 .2q.7 0 1.1-.3.4-.2.4-.7 0-.4-.2-.5-.1-.2-.5-.3l-.7-.2h-.7q-.7-.2-1-.6-.4-.4-.4-1 0-.8.6-1.2.6-.5 1.5-.5l1 .1 1 .3v1l-1-.5-1-.2q-.6 0-1 .2-.4.3-.4.7 0 .3.2.5.2.3.7.4h.7l.7.2q.7.2 1 .6.3.3.3 1zm4.7 1.6H29v-3l-.1-.4-.3-.2h-1.1l-.6.4v3.2h-.7V179h.7v.4l.7-.4q.3-.2.7-.2.7 0 1 .5.4.4.4 1.2zm4.7 0h-.7v-.4l-.2.2-.3.1-.5.2h-.5q-.6 0-1-.3-.4-.4-.4-1 0-.5.2-.8.2-.3.6-.5l1-.2h1.1V179.9l-.3-.3H33l-.4-.1H32l-.8.3v-.7l.6-.2h1.6l.6.3.3.4.1.7zm-.7-1V181H33q-.5 0-.8.2-.3 0-.5.2l-.1.5q0 .4.2.6.2.2.7.2l.6-.2.6-.3zm5.9-1.2q0 .6-.2 1-.1.4-.4.7-.2.3-.6.5l-.7.1h-.6l-.5-.3v1.8h-.8V179h.8v.4l.6-.4.8-.2q.7 0 1.2.6.4.6.4 1.6zm-.7 0q0-.7-.3-1-.3-.5-.8-.5l-.6.2q-.4 0-.6.3v2.4l.5.2h.5q.6 0 1-.3.3-.4.3-1.2z"/>
  </g>
  <g fill="#fff">
    <path d="M58.1 184h-1l-1.8-2.2h-1v2.2h-.7v-5.6H55l.8.1q.4 0 .6.2l.5.5q.2.3.2.7 0 .6-.3 1t-.9.6zm-1.7-4v-.4l-.4-.3q-.1-.2-.3-.2h-1.5v2h1.4q.3 0 .5-.2l.2-.4.1-.5zm5.6 2h-3l.1.6.4.5q.1.2.4.3h.6l.8-.1.7-.4v.8l-.7.3h-.8q-1 0-1.6-.5-.6-.6-.6-1.6t.6-1.6q.5-.6 1.4-.6.9 0 1.3.5.5.5.5 1.4zm-.6-.6q0-.5-.3-.8-.3-.3-.8-.3-.6 0-.9.3-.3.3-.4.8zm2.4 2.6h-.7v-5.8h.7z"/>
  </g>
  <g fill="#fff" stroke-width=".9">
    <path d="M27.6 217.3h-.7v-7.5h.7zm3.6 0h-.7v-7.5h.7zm7.5-7.5l-2.8 7.1h-.7l2.8-7zm8.1 4.2l-.2.8-.4.5-.7.4h-3v-5.6H45l.6.2.4.4q.2.3.2.7 0 .4-.2.6-.2.3-.6.5.6.1 1 .5.3.4.3 1zm-1.3-2.5v-.4l-.3-.2-.4-.2h-1.6v1.7h1.6l.4-.2.2-.3v-.4zm.5 2.6l-.1-.6q-.1-.2-.4-.3l-.5-.2h-1.8v2.1H45q.4 0 .6-.2l.3-.4v-.4zm5.1 1.7h-.7v-.5l-.3.2-.3.2-.4.1h-.6q-.5 0-1-.3-.3-.4-.3-1 0-.5.2-.8.2-.3.6-.4l1-.3h1V212.4l-.3-.2-.3-.1h-1.1l-.7.2v-.7l.6-.1.7-.1h.8l.6.3.4.5.1.7zm-.7-1v-1.3h-.8l-.7.2q-.3 0-.5.3-.2.2-.2.5 0 .4.2.5.3.2.7.2l.7-.1.6-.4zm5.3.7l-.7.3h-1.6q-.4-.2-.6-.5l-.5-.7-.1-1q0-1 .6-1.6.5-.6 1.5-.6l.7.1.7.3v.8l-.8-.4-.6-.2q-.7 0-1 .4-.4.4-.4 1.2 0 .8.4 1.2.3.4 1 .4h.4l.4-.2.3-.1.2-.2zm4.8.3h-1l-1.7-1.9-.5.4v1.5h-.7v-6h.7v3.8l2.1-2.1h1l-2 2z"/>
  </g>
  <g fill="#fff">
    <path d="M43.8 248.3l-1 .4-1 .1q-.7 0-1.2-.2-.6-.1-1-.5-.3-.3-.5-.9-.2-.5-.2-1.2 0-1.4.7-2.1.8-.8 2.2-.8l1 .1 1 .4v.9h-.1l-.3-.3-.5-.2-.5-.2h-.8q-.9 0-1.4.5-.6.6-.6 1.6 0 1.1.6 1.7.6.6 1.5.6h.7l.6-.3v-1.3h-1.4v-.7h2.2zm4.7-1.6q0 1-.5 1.5-.5.6-1.4.6-.9 0-1.4-.6-.5-.5-.5-1.5t.5-1.6q.5-.6 1.4-.6.9 0 1.4.6.5.5.5 1.6zm-.7 0q0-.8-.3-1.2-.3-.4-.9-.4-.6 0-.9.4-.3.4-.3 1.2 0 .7.3 1.1.3.4 1 .4.5 0 .8-.4.3-.4.3-1.1z"/>
  </g>
  <g fill="#fff">
    <path d="M497.2 83.6h-3.5v-5.5h.8V83h2.7zm3.8 0h-.6v-.4l-.2.1-.3.2-.4.2h-.6q-.5 0-1-.4-.3-.3-.3-.9 0-.5.2-.8l.6-.4q.3-.2.9-.2l1.1-.1v-.5l-.3-.3h-.4l-.4-.1h-.6l-.7.3v-.7l.5-.2h1.6l.5.3.4.4v.7zm-.6-1v-1.2h-.7l-.7.2q-.3 0-.5.3-.2.1-.2.5 0 .3.2.5t.7.2l.6-.2.6-.3zm5-.2q0 .6-.5 1-.5.3-1.3.3l-.8-.1-.6-.2v-.8l.7.4.8.1.7-.1q.3-.2.3-.5l-.2-.4-.5-.2h-.4l-.4-.2q-.6-.1-.8-.4-.2-.3-.2-.7v-.4l.4-.4.5-.3.7-.1h.8l.6.3v.7l-.7-.3-.7-.1-.7.1-.2.4.1.4q.2.2.5.2l.5.1.4.1q.5.1.7.4.3.3.3.7zm3.1 1.2h-.8q-.7 0-1-.3-.3-.3-.3-1V80h-.5v-.6h.5v-1.2h.7v1.2h1.4v.6h-1.4v2.8l.3.2h1.1z"/>
  </g>
  <g fill="#fff">
    <path d="M529.2 83.6h-1l-2.5-4.9v4.9h-.7v-5.5h1.1l2.4 4.5v-4.5h.7zm4.8-2h-3l.1.7.3.4.5.3.6.1.8-.2.6-.3v.8l-.7.2-.7.1q-1 0-1.6-.6-.6-.5-.6-1.5t.6-1.6q.5-.6 1.4-.6.8 0 1.3.5.4.4.4 1.3zm-.6-.5q0-.6-.3-.9-.3-.3-.8-.3-.6 0-1 .4l-.3.8zm5.2 2.5h-.8l-1.2-1.6-1.2 1.6h-.8l1.6-2-1.6-2.1h1l1 1.5 1.2-1.5h.8l-1.6 2zm3.1 0h-.8q-.7 0-1-.3-.3-.3-.3-1V80h-.5v-.6h.5v-1.2h.7v1.2h1.4v.6h-1.4v2.8l.3.2h1.1z"/>
  </g>
  <g fill="#fff">
    <path d="M561.1 78h-.8v-3h-3v3h-.9v-6.2h.8v2.4h3.1v-2.4h.8zm2.4-5.4h-.8v-.8h.8zm0 5.4h-.8v-4.6h.8zm5.3-.6q0 1.2-.6 1.8-.5.5-1.6.5h-.7q-.4 0-.7-.2v-.8l.6.2.9.1h.6l.4-.3.2-.4.1-.5v-.5l-.7.5-.8.1q-.8 0-1.3-.6t-.5-1.7q0-.6.2-1l.4-.7.7-.5.8-.2.6.1.6.3v-.2h.8zm-.8-.7v-2.5l-.6-.2h-.5q-.6 0-1 .4t-.4 1.2q0 .8.3 1.2.3.4.9.4l.7-.1.6-.4zm6.2 1.3h-.8v-3.2l-.2-.5q-.1-.2-.3-.2l-.5-.1-.7.1-.6.4V78h-.8v-6.4h.8v2.3l.7-.5.8-.2q.8 0 1.2.5.4.4.4 1.3zm-14.7 10.5h-4v-6.1h.9v5.4h3zm1.5-5.4h-.8v-.8h.9zm0 5.4h-.8V84h.8zm5.3-.5q0 1.2-.5 1.7-.6.6-1.7.6h-.7l-.7-.2v-.8l.7.2h1.4l.4-.3q.2-.1.2-.4l.1-.5V88q-.3.3-.7.4-.3.2-.8.2-.8 0-1.3-.6t-.5-1.7q0-.6.2-1l.5-.8q.2-.3.6-.4l.8-.2h.6l.6.3V84h.8zm-.8-.7v-2.6l-.6-.2h-.5q-.6 0-1 .4t-.4 1.3q0 .7.3 1.1.3.4 1 .4h.6l.6-.4zm6.2 1.2h-.8v-3.1q0-.3-.2-.4 0-.2-.3-.3h-1.2l-.6.5v3.4h-.8v-6.4h.8v2.3q.3-.3.7-.4l.8-.2q.8 0 1.2.4.4.5.4 1.3zm3.8 0h-.4l-.5.1q-.7 0-1-.4-.4-.3-.4-1.2v-2.4h-.6v-.7h.6v-1.3h.7v1.3h1.6v.7H574v2.6l.2.4q0 .2.2.3h.9l.3-.1z"/>
  </g>
  <g fill="#fff">
    <path d="M413.8 37.1h-1L411 35h-1v2.2h-.7v-5.5h2.3l.6.3.5.5q.2.3.2.7 0 .6-.3 1t-.8.6zm-1.7-4v-.4l-.3-.3-.4-.1h-1.5v2h1.4l.5-.3q.2-.1.2-.3l.1-.5zm5.7 2h-3v.7l.4.5.4.2.6.1.9-.2.6-.3v.8l-.7.2-.8.1q-1 0-1.6-.5-.6-.6-.6-1.6t.6-1.6q.5-.6 1.4-.6.9 0 1.3.5.5.4.5 1.3zm-.7-.5q0-.6-.3-.9-.2-.3-.8-.3-.6 0-.9.4-.3.3-.4.8zm4.9 2.3l-.8.2-.6.1-.8-.1q-.4-.1-.7-.4-.3-.3-.4-.7-.2-.4-.2-1 0-1 .6-1.5.6-.6 1.5-.6h.7l.6.3v.8l-.7-.4-.7-.1q-.5 0-.9.4-.3.4-.3 1.2 0 .7.3 1.1.3.4 1 .4h.4l.4-.2.3-.2.2-.1zm4.3-1.9q0 1-.5 1.7-.5.5-1.4.5-.9 0-1.4-.5-.5-.6-.5-1.6t.5-1.6q.5-.6 1.4-.6.9 0 1.4.6.5.5.5 1.6zm-.7 0q0-.8-.3-1.1-.3-.4-.9-.4-.5 0-.9.4-.3.3-.3 1.2 0 .7.3 1.1.4.4 1 .4.5 0 .8-.4.3-.4.3-1.1zm4.4-1.3h-.7l-.6.1-.6.4v3h-.7V33h.7v.6l.8-.5.6-.1h.5zm4 3.4h-.7v-.4l-.6.4-.7.1q-.7 0-1.2-.5-.4-.6-.4-1.6l.1-1 .4-.7.6-.4.7-.1h.6l.5.2v-1.8h.7zm-.7-1v-2.4l-.5-.1-.4-.1q-.6 0-1 .4-.3.4-.3 1.2 0 .7.3 1 .2.5.8.5l.6-.2q.3 0 .5-.3z"/>
  </g>
  <g fill="#fff">
    <path d="M457.2 37.1h-3.6v-5.5h3.6v.7h-2.9v1.5h3v.6h-3v2h3zm4.5 0h-.7v-.4l-.6.4-.7.1q-.8 0-1.2-.5-.4-.6-.4-1.6l.1-1 .4-.7.6-.4.7-.1h.6l.5.2v-1.8h.7zm-.7-1v-2.4l-.5-.1-.5-.1q-.6 0-.9.4-.3.4-.3 1.2 0 .7.2 1 .3.5.8.5l.6-.2q.3 0 .6-.3zm2.8-3.8h-.8v-.7h.8zm0 4.8h-.7V33h.7zm3.5-.1l-.4.2h-.4q-.6 0-1-.3-.3-.4-.3-1.1v-2.2h-.5V33h.5v-1.2h.7V33h1.4v.6H466V36l.1.3q0 .2.2.2l.5.1h.3l.3-.1z"/>
  </g>
  <g fill="#fff">
    <path d="M490.2 34.2q0 .6-.2 1-.1.5-.4.8l-.7.5-1 .1-.9-.1q-.4-.2-.6-.5l-.5-.7-.1-1.1v-3.4h.7v3.4l.1.8.2.5.5.3q.3.2.7.2.4 0 .7-.2.3 0 .4-.3l.2-.5.1-.7v-3.5h.8zm5.1.1l-.1 1-.4.7-.6.4-.8.2-.6-.1-.5-.2V38h-.7v-5.9h.7v.5l.6-.4.8-.2q.8 0 1.2.6.4.6.4 1.6zm-.7 0q0-.8-.3-1.1-.2-.4-.8-.4l-.6.1-.6.4v2.4l.5.2h.5q.6 0 1-.4.3-.4.3-1.2zm5.4 2.2h-.8V36l-.6.5-.8.1q-.7 0-1.2-.6-.4-.6-.4-1.6l.1-1 .4-.7.6-.5.8-.1h.6l.5.3v-1.9h.7zm-.8-1V33l-.5-.2h-.5q-.6 0-1 .4-.3.4-.3 1.2 0 .7.3 1.1.2.4.8.4l.6-.1.6-.4zm5.5 1h-.7V36l-.3.2-.3.2-.4.1-.6.1q-.6 0-1-.4t-.4-1q0-.4.2-.7l.6-.5q.4-.2 1-.2l1.2-.1v-.2l-.1-.4-.3-.2-.3-.1h-1.1q-.4 0-.7.2v-.7l.5-.1.8-.1h.8l.6.3.4.5v.7zm-.7-1v-1.3l-.8.1-.7.1-.5.3q-.2.2-.2.5 0 .4.2.6l.7.1.7-.1.6-.4zm4.3 1h-.9q-.6 0-1-.3-.3-.3-.3-1.1v-2.3h-.5v-.6h.5V31h.7v1.2h1.5v.6h-1.5v2.5l.1.3.3.3h.8l.3-.1zm4.5-2.1h-3.2l.1.7.3.5.5.3h.6l.9-.1.6-.4v.8l-.7.3h-.8q-1 0-1.6-.5-.6-.6-.6-1.6t.5-1.7q.6-.6 1.6-.6.8 0 1.3.5t.5 1.4zm-.7-.5q0-.6-.3-1-.3-.2-.9-.2-.6 0-1 .3-.3.4-.3.9z"/>
  </g>
  <g fill="#fff">
    <path d="M533.2 37.1h-3.5v-5.5h.8v4.9h2.7zm4.2-2.1q0 1-.5 1.7-.5.5-1.4.5-.9 0-1.4-.5-.5-.6-.5-1.6t.5-1.6q.5-.6 1.4-.6.9 0 1.4.6.5.5.5 1.6zm-.7 0q0-.8-.3-1.1-.3-.4-.9-.4-.6 0-.9.4-.3.3-.3 1.2 0 .7.3 1.1.3.4 1 .4.5 0 .8-.4.3-.4.3-1.1zm5 2.1h-.7v-.4l-.2.2-.3.1-.4.2h-.6q-.5 0-.9-.3-.4-.4-.4-1 0-.4.2-.7.2-.3.6-.5.4-.2.9-.2l1.1-.1v-.5l-.3-.3h-.3l-.5-.1h-.6l-.7.3V33l.6-.2h1.5l.6.3.3.4.1.7zm-.7-1V35h-.7l-.7.1-.5.3q-.2.2-.2.5t.2.5q.3.2.7.2l.7-.1.5-.4zm5.4 1h-.6v-.4l-.7.4-.7.1q-.7 0-1.2-.5-.4-.6-.4-1.6l.1-1 .5-.7.5-.4.7-.1h.6l.6.2v-1.8h.6zm-.6-1v-2.4l-.6-.1-.4-.1q-.6 0-1 .4-.3.4-.3 1.2 0 .7.3 1 .2.5.8.5l.6-.2q.3 0 .6-.3z"/>
  </g>
  <g fill="#fff">
    <path d="M571.8 36.7l-.4.2-.4.2h-.5l-.6.1-1-.1q-.6-.2-1-.6-.3-.3-.5-.9-.2-.5-.2-1.2t.2-1.3q.2-.5.6-.9l.8-.5q.5-.2 1.1-.2l1 .1.9.4v.9l-1-.6q-.4-.2-1-.2l-.7.2-.6.4-.4.7-.1 1 .1 1 .4.7.6.4h1.8l.8-.6h.1zm1.7.4h-.7v-5.8h.7zm4.9-2h-3.1l.1.7.3.5.5.2.6.1.8-.2q.5-.1.6-.3v.8l-.6.2-.8.1q-1 0-1.6-.5-.6-.6-.6-1.6t.5-1.6q.6-.6 1.5-.6.8 0 1.3.5.5.4.5 1.3zm-.7-.5q0-.6-.3-.9-.3-.3-.8-.3-.6 0-1 .4-.3.3-.3.8zm4.9 2.5h-.7v-.4l-.2.2-.3.1-.4.2h-.5q-.6 0-1-.3-.4-.4-.4-1 0-.4.2-.7.2-.3.6-.5.4-.2.9-.2l1.1-.1v-.5l-.3-.3h-.3l-.5-.1h-.6l-.7.3V33l.6-.2h1.5l.6.3.3.4.1.7zm-.7-1V35h-.7l-.7.1-.5.3q-.2.2-.2.5t.2.5q.3.2.7.2l.7-.1.5-.4zm4.7-2.4h-.7l-.6.1-.6.4v3h-.7V33h.7v.6l.7-.5.7-.1h.5z"/>
  </g>
  <path fill="#c1c1c1" stroke-width=".1" d="M54.4 279l5.3 5.4 9-8.9zm-35.9 2.4h5.2l2.2 8.8 2.2-8.8h5V295h-3v-10l-2.9 10h-3l-2.7-10v10h-3zM42.8 295v-6.2c0-1-.1-2-.7-2.5-.9-1-2.5-1.1-3.2-1.1-1.6 0-2.9.4-3.5 1.2-.7.7-.7 1.5-.7 2h3c0-1.1.6-1.5 1.2-1.5 1 0 1 1 1 2-3.6-.2-5.7.8-5.7 3.4 0 1.6.9 3 3 3 1.7 0 2.3-1 2.7-1.6v1.3h3zm-2.9-4.5c0 .4 0 1.2-.2 1.8-.3.8-1 1-1.3 1-.7 0-1.1-.7-1.1-1.4 0-1.3 1.3-1.3 2.6-1.4m4.3-5h3v1.6c.6-1.8 2.3-1.7 3-1.6v3h-.7c-2 0-2.2 1.5-2.2 2.5v4h-3zm12.4 0v2.9h-2v2.7c0 1.2 0 1.8 1.2 1.8h.8v2.1l-2 .2c-2.5 0-3-1-3-2.8V283h3v2.6h2zm1.4 0h3.2v9.5h-3.1zm4.7 0h3l.1 1.5c.4-.8 1-1.7 2.8-1.7 3 0 3 2.6 3 4v5.7h-3v-5.4c0-.7 0-2-1.4-2s-1.4 1.6-1.4 2v5.4h-3v-9.5zm9.6-1.5h.5l-.1-.2h-.4v.3zm.2-.5h.3a.3.3 0 0 1 0 .7l.1.3.2.4h-.4v-.3c0-.3 0-.3-.3-.3v.5H72v-1.2h.4zm0 0"/>
  <path fill="none" stroke="#c1c1c1" d="M73.5 284.2c0-.5-.4-1-1-1a1 1 0 0 0-1 1c0 .6.5 1 1 1 .6 0 1-.4 1-1zm0 0"/>
  <g fill="#c1c1c1" stroke-width="0">
    <path d="M533.2 281.1V295h-4v-10l-2.5 10H524l-2.7-10v10h-3.2v-13.9h5.6l2 7.4 2-7.4zm6.8 7v3.2h-5.2v-3.2zm6.9-3.7V295h-4v-10.6h-3v-3.3h9.9v3.3zm8.2 10.8q-2.6 0-4.1-1.6-1.5-1.6-1.5-3.8 0-2.3 1.6-3.8 1.6-1.6 4-1.6 2.6 0 4.2 1.6 1.6 1.5 1.6 3.8t-1.6 3.9q-1.6 1.5-4.2 1.5zm0-2.4q1 0 1.2-1l.2-2q0-1.5-.3-2.2-.3-.6-1-.6t-1 .6q-.4.7-.4 2.2 0 1.8.4 2.4.3.6 1 .6zm17.4-8.2V295h-3.7v-1.7q-.9 2-3.3 2-1.4 0-2.3-.9-.8-.8-.8-2.4v-7.4h4.1v6.6q0 .6.2.8.1.3.6.3t.9-.4q.3-.4.3-1v-6.3zm8.4 6.2l3.5.3q-.3 1.8-1.6 3-1.2 1.1-3.4 1.1-2.3 0-3.8-1.5T574 290q0-2.4 1.5-4 1.5-1.5 3.8-1.5 2.1 0 3.4 1.2 1.3 1.2 1.5 3l-3.5.2q-.3-1.6-1.3-1.6-.6 0-1 .6-.2.6-.2 2 0 1.3.3 2 .3.6 1 .6 1.1 0 1.3-1.6zM596 295h-4v-6.2q0-.9-.2-1.2-.2-.3-.8-.3-.4 0-.7.2l-.4.5v7h-4v-13.9h4v4.8q1.1-1.5 2.9-1.5.9 0 1.5.3.7.3 1 .8.5.5.6 1l.1 1.8z"/>
  </g>
  <g fill="#fff">
    <g>
      <path d="M419.6 73l-.2.6q0 .3-.3.5-.2.3-.6.4l-.9.1h-.7v1.9h-.6v-5h2.1l.6.3.4.4q.2.3.2.8zm-.7 0l-.1-.5-.3-.3-.4-.1H417v2h.6l.7-.1.4-.3.2-.3V73zm2.1 3.5h-.6v-5.3h.6zm4.2 0h-.6v-.4l-.2.2-.3.1-.4.1-.4.1q-.6 0-1-.3-.3-.4-.3-.9 0-.4.2-.7.2-.3.5-.4.4-.2.9-.2l1-.1v-.5l-.3-.2h-.3l-.4-.1h-.6l-.6.2v-.6l.5-.1h1.4q.3 0 .5.2l.3.4.1.6zm-.6-1v-1h-.7l-.6.2q-.3 0-.4.2-.2.2-.2.5t.2.4q.2.2.6.2l.6-.1.5-.3zm5.1-2.8l-2.2 5.2h-.7l.7-1.6-1.5-3.6h.7l1.2 2.8 1.1-2.8z"/>
    </g>
    <g>
      <path d="M441.8 74.7q0 .4-.2.7-.1.3-.4.5l-.6.3H438v-5h2.3l.5.2.4.4.1.6-.2.6-.4.4q.5.1.8.5.3.3.3.8zm-1.2-2.3v-.3l-.2-.2h-.4l-.6-.1h-.8v1.5h1.4l.3-.2.3-.3v-.4zm.5 2.3l-.1-.4q-.1-.2-.4-.3l-.4-.2h-1.5v1.9h1.5q.3 0 .5-.2l.3-.3v-.5zm4.5 1.6h-.6v-.4l-.3.1-.2.2-.4.1h-.5q-.5 0-.9-.3-.3-.3-.3-.8t.2-.7q.2-.3.5-.4.3-.2.8-.2l1-.1v-.5l-.2-.2-.4-.1h-.9l-.6.2v-.6l.5-.1.7-.1h.6l.6.3q.2.1.3.4l.1.6zm-.6-1v-1h-.7l-.6.1-.5.3q-.2.1-.2.4 0 .4.2.5.2.2.6.2l.6-.1.6-.4zm4.5-.1q0 .5-.4.8-.4.4-1.2.4l-.7-.1-.6-.3v-.7q.3.3.7.4l.7.1.6-.1q.3-.1.3-.4l-.1-.4-.5-.2h-.4l-.4-.1-.7-.4q-.2-.3-.2-.7v-.4l.4-.4.5-.2.6-.1h.7l.6.3v.7l-.6-.3-.7-.2q-.4 0-.6.2-.3.1-.3.4 0 .2.2.3l.5.2h.3l.4.2q.5 0 .7.3.2.3.2.7zm4.1-.8h-2.8l.1.7.3.4.4.2.6.1.8-.1.5-.4v.7l-.6.3h-.7q-1 0-1.5-.4-.5-.6-.5-1.5 0-1 .5-1.5t1.3-.5q.8 0 1.2.4.4.5.4 1.3zm-.6-.4q0-.5-.3-.8-.2-.3-.7-.3-.5 0-.8.3-.3.3-.4.8z"/>
    </g>
    <g>
      <g>
        <path d="M419.5 84.8h-2.6v1.4h2.2v.6H417v2.4h-.6v-5h3.2zm2.7 2.5h-2.1v-.6h2.1zm5.3 1.9h-1l-2-2.2-.4.5v1.7h-.7v-5h.7v2.6l2.4-2.6h.9l-2.3 2.3zm3.6-1.8h-2.8l.1.6.3.4.4.3h.6l.7-.1.6-.3v.7l-.6.2h-.7q-1 0-1.5-.4-.5-.5-.5-1.5 0-.9.5-1.4.5-.6 1.3-.6t1.2.5q.4.4.4 1.2zm-.6-.5q0-.5-.3-.8-.2-.3-.7-.3-.5 0-.8.3-.3.3-.4.8zm4.8-1.5l-2.2 5.2h-.7l.8-1.6-1.6-3.6h.7l1.2 2.8 1.2-2.8z"/>
      </g>
      <g>
        <path d="M449 84.8h-2.5v1.4h2.1v.6h-2.1v2.4h-.7v-5h3.2zm4.6-.6l-1.7 2.4 1.7 2.6h-.8l-1.3-2-1.4 2h-.8l1.8-2.5-1.7-2.5h.7l1.4 2 1.4-2z"/>
      </g>
    </g>
  </g>
  <g class="Fader1">
    <rect width="29.1" height="28.8" x="78" y="19.4" stroke="#000" stroke-linejoin="round" class="BlackSquare" ry="4"/>
    <rect width="29.1" height="28.8" x="78" y="52" stroke="#000" stroke-linejoin="round" class="BlackSquare" ry="4"/>
    <rect width="28.1" height="121.2" x="78.6" y="102.6" stroke="#000" stroke-linejoin="round" ry="3"/>
    <rect width="29.1" height="28.8" x="78" y="231.4" fill="#eaeaea" stroke="#515151" stroke-linejoin="round" class="GreyButton" ry="4"/>
    <path fill="#fff" d="M94.3 37h-3.5v-.6h1.4v-4.3h-1.4v-.6h.6l.5-.2.3-.3.1-.4h.7v5.8h1.3z"/>
    <g>
      <ellipse cx="83.6" cy="218.8" class="FaderLed" rx="2.9" ry="3.4"/>
      <ellipse cx="83.6" cy="120" class="FaderLed" rx="2.9" ry="3.4"/>
      <ellipse cx="83.6" cy="132.3" class="FaderLed" rx="2.9" ry="3.4"/>
      <ellipse cx="83.6" cy="206.5" class="FaderLed" rx="2.9" ry="3.4"/>
      <ellipse cx="83.6" cy="107.1" class="FaderLed" rx="2.9" ry="3.4"/>
      <ellipse cx="83.6" cy="144.7" class="FaderLed" rx="2.9" ry="3.4"/>
      <ellipse cx="83.6" cy="157" class="FaderLed" rx="2.9" ry="3.4"/>
      <ellipse cx="83.6" cy="169.4" class="FaderLed" rx="2.9" ry="3.4"/>
      <ellipse cx="83.6" cy="181.8" class="FaderLed" rx="2.9" ry="3.4"/>
      <ellipse cx="83.6" cy="194.1" class="FaderLed" rx="2.9" ry="3.4"/>
    </g>
    <text x="86.2" y="256.2" fill="currentColor" class="Cuelist1 Cuelist-Box" font-size="8.4" style="line-height:125%" transform="scale(1.07249 .93241)">
      <tspan x="86.2" y="256.2" class="Cuelist1-1 Cuelist-Line" style="text-align:center" text-anchor="middle">Line 1</tspan>
      <tspan x="86.2" y="266.6" class="Cuelist1-2 Cuelist-Line" style="text-align:center" text-anchor="middle">Line 2</tspan>
      <tspan x="86.2" y="277.1" class="Cuelist1-3 Cuelist-Line" style="text-align:center" text-anchor="middle">Line 3</tspan>
    </text>
  </g>
  <g class="Fader2">
    <rect width="29.1" height="28.8" x="110.3" y="52" stroke="#000" stroke-linejoin="round" class="BlackSquare" ry="4"/>
    <rect width="29.1" height="28.8" x="110.6" y="19.4" stroke="#000" stroke-linejoin="round" class="BlackSquare" ry="4"/>
    <rect width="28.1" height="121.2" x="111.3" y="102.6" stroke="#000" stroke-linejoin="round" ry="3"/>
    <rect width="29.1" height="28.8" x="110.3" y="231.4" fill="#eaeaea" stroke="#515151" stroke-linejoin="round" class="GreyButton" ry="4"/>
    <path fill="#fff" d="M127.2 37.1h-4.4v-.9l1-.8.8-.7 1.1-1.3q.3-.5.3-1 0-.6-.3-.8-.3-.3-1-.3l-.8.1-.9.4V31l.8-.3h1q1 0 1.6.4.5.5.5 1.3v.7l-.4.6q-.1.3-.4.5l-.5.6-1 .9-.9.8h3.5z"/>
    <g transform="translate(32.8)">
      <ellipse cx="83.6" cy="218.8" class="FaderLed" rx="2.9" ry="3.4"/>
      <ellipse cx="83.6" cy="120" class="FaderLed" rx="2.9" ry="3.4"/>
      <ellipse cx="83.6" cy="132.3" class="FaderLed" rx="2.9" ry="3.4"/>
      <ellipse cx="83.6" cy="206.5" class="FaderLed" rx="2.9" ry="3.4"/>
      <ellipse cx="83.6" cy="107.6" class="FaderLed" rx="2.9" ry="3.4"/>
      <ellipse cx="83.6" cy="144.7" class="FaderLed" rx="2.9" ry="3.4"/>
      <ellipse cx="83.6" cy="157" class="FaderLed" rx="2.9" ry="3.4"/>
      <ellipse cx="83.6" cy="169.4" class="FaderLed" rx="2.9" ry="3.4"/>
      <ellipse cx="83.6" cy="181.8" class="FaderLed" rx="2.9" ry="3.4"/>
      <ellipse cx="83.6" cy="194.1" class="FaderLed" rx="2.9" ry="3.4"/>
    </g>
    <text x="116.3" y="256.2" fill="currentColor" class="Cuelist2 Cuelist-Box" font-size="8.4" style="line-height:125%" transform="scale(1.07249 .93241)">
      <tspan x="116.3" y="256.2" class="Cuelist2-1 Cuelist-Line" style="text-align:center" text-anchor="middle">Line 1</tspan>
      <tspan x="116.3" y="266.6" class="Cuelist2-2 Cuelist-Line" style="text-align:center" text-anchor="middle">Line 2</tspan>
      <tspan x="116.3" y="277.1" class="Cuelist3-1 Cuelist-Line" style="text-align:center" text-anchor="middle">Line 3</tspan>
    </text>
  </g>
  <g class="Fader3">
    <rect width="29.1" height="28.8" x="142.7" y="52" stroke="#000" stroke-linejoin="round" class="BlackSquare" ry="4"/>
    <rect width="29.1" height="28.8" x="143" y="19.4" stroke="#000" stroke-linejoin="round" class="BlackSquare" ry="4"/>
    <rect width="28.1" height="121.2" x="143.7" y="102.6" stroke="#000" stroke-linejoin="round" ry="3"/>
    <rect width="29.1" height="28.8" x="142.7" y="231.4" fill="#eaeaea" stroke="#515151" stroke-linejoin="round" class="Cuelist-Box GreyButton" font-size="8.4" ry="4" style="line-height:125%"/>
    <path fill="#fff" d="M159 34l.4.5.1.7-.1.8-.5.7q-.3.3-.8.4-.4.2-1 .2l-1-.2-.8-.3V36q.4.3.9.4l1 .2h.5l.5-.4.3-.4.1-.6v-.5l-.4-.4-.5-.2h-.9v-.8h.3q.6 0 1-.2.4-.3.4-.8l-.1-.4-.3-.3-.4-.2h-.5l-.8.1-1 .4V31l.9-.3h1.8q.4 0 .7.3.3.2.4.5.2.3.2.7 0 .5-.4 1-.4.3-.9.4l.5.2.4.3z"/>
    <g transform="translate(65.2)">
      <ellipse cx="83.6" cy="218.8" class="FaderLed" rx="2.9" ry="3.4"/>
      <ellipse cx="83.6" cy="120" class="FaderLed" rx="2.9" ry="3.4"/>
      <ellipse cx="83.6" cy="132.3" class="FaderLed" rx="2.9" ry="3.4"/>
      <ellipse cx="83.6" cy="206.5" class="FaderLed" rx="2.9" ry="3.4"/>
      <ellipse cx="83.6" cy="107.6" class="FaderLed" rx="2.9" ry="3.4"/>
      <ellipse cx="83.6" cy="144.7" class="FaderLed" rx="2.9" ry="3.4"/>
      <ellipse cx="83.6" cy="157" class="FaderLed" rx="2.9" ry="3.4"/>
      <ellipse cx="83.6" cy="169.4" class="FaderLed" rx="2.9" ry="3.4"/>
      <ellipse cx="83.6" cy="181.8" class="FaderLed" rx="2.9" ry="3.4"/>
      <ellipse cx="83.6" cy="194.1" class="FaderLed" rx="2.9" ry="3.4"/>
    </g>
    <text x="146.5" y="256.2" fill="currentColor" class="Cuelist3 Cuelist-Box" font-size="8.4" style="line-height:125%" transform="scale(1.07249 .93241)">
      <tspan x="146.5" y="256.2" class="Cuelist3-1 Cuelist-Line" style="text-align:center" text-anchor="middle">Line 1</tspan>
      <tspan x="146.5" y="266.6" class="Cuelist3-2 Cuelist-Line" style="text-align:center" text-anchor="middle">Line 2</tspan>
      <tspan x="146.5" y="277.1" class="Cuelist3-3 Cuelist-Line" style="text-align:center" text-anchor="middle">Line 3</tspan>
    </text>
  </g>
  <g class="Fader4">
    <rect width="29.1" height="28.8" x="175.1" y="52" stroke="#000" stroke-linejoin="round" class="BlackSquare" ry="4"/>
    <rect width="29.1" height="28.8" x="175.4" y="19.4" stroke="#000" stroke-linejoin="round" class="BlackSquare" ry="4"/>
    <rect width="28.1" height="121.2" x="176.1" y="102.6" stroke="#000" stroke-linejoin="round" ry="3"/>
    <rect width="29.1" height="28.8" x="175.2" y="231.4" fill="#eaeaea" stroke="#515151" stroke-linejoin="round" class="GreyButton" ry="4"/>
    <path fill="#fff" d="M192.2 35.3h-1v1.8h-.8v-1.8h-3.1v-1l3.1-3.6h.8v3.9h1zm-1.8-.7v-3l-2.5 3z"/>
    <g transform="translate(97.6)">
      <ellipse cx="83.6" cy="218.8" class="FaderLed" rx="2.9" ry="3.4"/>
      <ellipse cx="83.6" cy="120" class="FaderLed" rx="2.9" ry="3.4"/>
      <ellipse cx="83.6" cy="132.3" class="FaderLed" rx="2.9" ry="3.4"/>
      <ellipse cx="83.6" cy="206.5" class="FaderLed" rx="2.9" ry="3.4"/>
      <ellipse cx="83.6" cy="107.6" class="FaderLed" rx="2.9" ry="3.4"/>
      <ellipse cx="83.6" cy="144.7" class="FaderLed" rx="2.9" ry="3.4"/>
      <ellipse cx="83.6" cy="157" class="FaderLed" rx="2.9" ry="3.4"/>
      <ellipse cx="83.6" cy="169.4" class="FaderLed" rx="2.9" ry="3.4"/>
      <ellipse cx="83.6" cy="181.8" class="FaderLed" rx="2.9" ry="3.4"/>
      <ellipse cx="83.6" cy="194.1" class="FaderLed" rx="2.9" ry="3.4"/>
    </g>
    <text x="176.7" y="256.2" fill="currentColor" class="Cuelist4 Cuelist-Box" font-size="8.4" style="line-height:125%" transform="scale(1.07249 .93241)">
      <tspan x="176.7" y="256.2" class="Cuelist4-1 Cuelist-Line" style="text-align:center" text-anchor="middle">Line 1</tspan>
      <tspan x="176.7" y="266.6" class="Cuelist4-2 Cuelist-Line" style="text-align:center" text-anchor="middle">Line 2</tspan>
      <tspan x="176.7" y="277.1" class="Cuelist4-3 Cuelist-Line" style="text-align:center" text-anchor="middle">Line 3</tspan>
    </text>
  </g>
  <g class="Fader5">
    <rect width="29.1" height="28.8" x="207.5" y="52" stroke="#000" stroke-linejoin="round" class="BlackSquare" ry="4"/>
    <rect width="29.1" height="28.8" x="207.8" y="19.4" stroke="#000" stroke-linejoin="round" class="BlackSquare" ry="4"/>
    <rect width="28.1" height="121.2" x="208.5" y="102.6" stroke="#000" stroke-linejoin="round" ry="3"/>
    <rect width="29.1" height="28.8" x="207.6" y="231.4" fill="#eaeaea" stroke="#515151" stroke-linejoin="round" class="GreyButton" ry="4"/>
    <path fill="#fff" d="M224.4 35l-.2 1-.4.6-.8.5q-.4.2-1 .2l-1-.2q-.5 0-.8-.2v-1q.4.3.9.4l1 .2h.5l.5-.4.3-.4.1-.6-.1-.6-.3-.4-.6-.2h-2v-3.2h3.9v.7h-3.1v1.7h1.7l.7.4q.3.2.5.6.2.4.2 1z"/>
    <g transform="translate(130)">
      <ellipse cx="83.6" cy="218.8" class="FaderLed" rx="2.9" ry="3.4"/>
      <ellipse cx="83.6" cy="120" class="FaderLed" rx="2.9" ry="3.4"/>
      <ellipse cx="83.6" cy="132.3" class="FaderLed" rx="2.9" ry="3.4"/>
      <ellipse cx="83.6" cy="206.5" class="FaderLed" rx="2.9" ry="3.4"/>
      <ellipse cx="83.6" cy="107.6" class="FaderLed" rx="2.9" ry="3.4"/>
      <ellipse cx="83.6" cy="144.7" class="FaderLed" rx="2.9" ry="3.4"/>
      <ellipse cx="83.6" cy="157" class="FaderLed" rx="2.9" ry="3.4"/>
      <ellipse cx="83.6" cy="169.4" class="FaderLed" rx="2.9" ry="3.4"/>
      <ellipse cx="83.6" cy="181.8" class="FaderLed" rx="2.9" ry="3.4"/>
      <ellipse cx="83.6" cy="194.1" class="FaderLed" rx="2.9" ry="3.4"/>
    </g>
    <text x="206.9" y="256.2" fill="currentColor" class="Cuelist5 Cuelist-Box" font-size="8.4" style="line-height:125%" transform="scale(1.07249 .93241)">
      <tspan x="206.9" y="256.2" class="Cuelist5-1 Cuelist-Line" style="text-align:center" text-anchor="middle">Line 1</tspan>
      <tspan x="206.9" y="266.6" class="Cuelist5-2 Cuelist-Line" style="text-align:center" text-anchor="middle">Line 2</tspan>
      <tspan x="206.9" y="277.1" class="Cuelist5-3 Cuelist-Line" style="text-align:center" text-anchor="middle">Line 3</tspan>
    </text>
  </g>
  <g class="Fader6">
    <rect width="29.1" height="28.8" x="239.9" y="52" stroke="#000" stroke-linejoin="round" class="BlackSquare" ry="4"/>
    <rect width="29.1" height="28.8" x="240.2" y="19.4" stroke="#000" stroke-linejoin="round" class="BlackSquare" ry="4"/>
    <rect width="28.1" height="121.2" x="240.9" y="102.6" stroke="#000" stroke-linejoin="round" ry="3"/>
    <rect width="29.1" height="28.8" x="240" y="231.4" fill="#eaeaea" stroke="#515151" stroke-linejoin="round" class="GreyButton" ry="4"/>
    <path fill="#fff" d="M257 35q0 1-.7 1.6-.6.7-1.6.7-.5 0-.8-.2-.4-.1-.7-.4-.4-.4-.6-1-.2-.6-.2-1.4 0-.9.2-1.5.2-.7.6-1.2.3-.5 1-.8.6-.3 1.4-.3h.4l.3.1v.9l-.4-.2h-.5q-1 0-1.5.6-.5.5-.6 1.5l.7-.3.8-.1h.8l.6.4q.4.2.6.6.2.4.2 1zm-1 0v-.6l-.4-.5-.5-.2H254l-.6.4v.4l.1 1 .4.7.4.3h.5q.7 0 1-.3.4-.4.4-1.1z"/>
    <g transform="translate(162.4)">
      <ellipse cx="83.6" cy="218.8" class="FaderLed" rx="2.9" ry="3.4"/>
      <ellipse cx="83.6" cy="120" class="FaderLed" rx="2.9" ry="3.4"/>
      <ellipse cx="83.6" cy="132.3" class="FaderLed" rx="2.9" ry="3.4"/>
      <ellipse cx="83.6" cy="206.5" class="FaderLed" rx="2.9" ry="3.4"/>
      <ellipse cx="83.6" cy="107.6" class="FaderLed" rx="2.9" ry="3.4"/>
      <ellipse cx="83.6" cy="144.7" class="FaderLed" rx="2.9" ry="3.4"/>
      <ellipse cx="83.6" cy="157" class="FaderLed" rx="2.9" ry="3.4"/>
      <ellipse cx="83.6" cy="169.4" class="FaderLed" rx="2.9" ry="3.4"/>
      <ellipse cx="83.6" cy="181.8" class="FaderLed" rx="2.9" ry="3.4"/>
      <ellipse cx="83.6" cy="194.1" class="FaderLed" rx="2.9" ry="3.4"/>
    </g>
    <text x="237.2" y="256.2" fill="currentColor" class="Cuelist6 Cuelist-Box" font-size="8.4" style="line-height:125%" transform="scale(1.07249 .93241)">
      <tspan x="237.2" y="256.2" class="Cuelist6-1 Cuelist-Line" style="text-align:center" text-anchor="middle">Line 1</tspan>
      <tspan x="237.2" y="266.6" class="Cuelist6-2 Cuelist-Line" style="text-align:center" text-anchor="middle">Line 2</tspan>
      <tspan x="237.2" y="277.1" class="Cuelist6-3 Cuelist-Line" style="text-align:center" text-anchor="middle">Line 3</tspan>
    </text>
  </g>
  <g class="Fader7">
    <rect width="29.1" height="28.8" x="272.3" y="52" stroke="#000" stroke-linejoin="round" class="BlackSquare" ry="4"/>
    <rect width="29.1" height="28.8" x="272.6" y="19.4" stroke="#000" stroke-linejoin="round" class="BlackSquare" ry="4"/>
    <rect width="28.1" height="121.2" x="273.3" y="102.6" stroke="#000" stroke-linejoin="round" ry="3"/>
    <rect width="29.1" height="28.8" x="272.4" y="231.4" fill="#eaeaea" stroke="#515151" stroke-linejoin="round" class="GreyButton" ry="4"/>
    <path fill="#fff" d="M289.3 31.6l-3 5.5h-.8l3-5.7H285v-.7h4.4z"/>
    <g transform="translate(194.8)">
      <ellipse cx="83.6" cy="218.8" class="FaderLed" rx="2.9" ry="3.4"/>
      <ellipse cx="83.6" cy="120" class="FaderLed" rx="2.9" ry="3.4"/>
      <ellipse cx="83.6" cy="132.3" class="FaderLed" rx="2.9" ry="3.4"/>
      <ellipse cx="83.6" cy="206.5" class="FaderLed" rx="2.9" ry="3.4"/>
      <ellipse cx="83.6" cy="107.6" class="FaderLed" rx="2.9" ry="3.4"/>
      <ellipse cx="83.6" cy="144.7" class="FaderLed" rx="2.9" ry="3.4"/>
      <ellipse cx="83.6" cy="157" class="FaderLed" rx="2.9" ry="3.4"/>
      <ellipse cx="83.6" cy="169.4" class="FaderLed" rx="2.9" ry="3.4"/>
      <ellipse cx="83.6" cy="181.8" class="FaderLed" rx="2.9" ry="3.4"/>
      <ellipse cx="83.6" cy="194.1" class="FaderLed" rx="2.9" ry="3.4"/>
    </g>
    <text x="267.4" y="256.2" fill="currentColor" class="Cuelist7 Cuelist-Box" font-size="8.4" style="line-height:125%" transform="scale(1.07249 .93241)">
      <tspan x="267.4" y="256.2" class="Cuelist7-1 Cuelist-Line" style="text-align:center" text-anchor="middle">Line 1</tspan>
      <tspan x="267.4" y="266.6" class="Cuelist7-2 Cuelist-Line" style="text-align:center" text-anchor="middle">Line 2</tspan>
      <tspan x="267.4" y="277.1" class="Cuelist7-3 Cuelist-Line" style="text-align:center" text-anchor="middle">Line 3</tspan>
    </text>
  </g>
  <g class="Fader8">
    <rect width="29.1" height="28.8" x="304.7" y="52" stroke="#000" stroke-linejoin="round" class="BlackSquare" ry="4"/>
    <rect width="29.1" height="28.8" x="305" y="19.4" stroke="#000" stroke-linejoin="round" class="BlackSquare" ry="4"/>
    <rect width="28.1" height="121.2" x="305.7" y="102.6" stroke="#000" stroke-linejoin="round" ry="3"/>
    <rect width="29.1" height="28.8" x="304.8" y="231.4" fill="#eaeaea" stroke="#515151" stroke-linejoin="round" class="GreyButton" ry="4"/>
    <path fill="#fff" d="M321.8 35.3q0 .9-.7 1.4-.6.6-1.6.6t-1.7-.6q-.6-.5-.6-1.4 0-.5.3-1 .3-.4.9-.6-.6-.3-.8-.7-.3-.3-.3-.8 0-.7.6-1.2t1.6-.5q1 0 1.5.5.6.4.6 1.1 0 .5-.3 1l-.8.6 1 .6q.3.4.3 1zm-1-3.1q0-.5-.4-.8-.4-.3-1-.3-.5 0-.8.3-.4.3-.4.7 0 .3.2.5l.5.5.5.2.6.2.6-.6.1-.7zm0 3.2l-.1-.6q-.2-.3-.7-.5l-.4-.2-.7-.2q-.4.2-.6.5-.3.4-.3.9 0 .6.4 1 .5.3 1 .3.7 0 1-.3.5-.3.5-.9z"/>
    <g transform="translate(227.2)">
      <ellipse cx="83.6" cy="218.8" class="FaderLed" rx="2.9" ry="3.4"/>
      <ellipse cx="83.6" cy="120" class="FaderLed" rx="2.9" ry="3.4"/>
      <ellipse cx="83.6" cy="132.3" class="FaderLed" rx="2.9" ry="3.4"/>
      <ellipse cx="83.6" cy="206.5" class="FaderLed" rx="2.9" ry="3.4"/>
      <ellipse cx="83.6" cy="107.6" class="FaderLed" rx="2.9" ry="3.4"/>
      <ellipse cx="83.6" cy="144.7" class="FaderLed" rx="2.9" ry="3.4"/>
      <ellipse cx="83.6" cy="157" class="FaderLed" rx="2.9" ry="3.4"/>
      <ellipse cx="83.6" cy="169.4" class="FaderLed" rx="2.9" ry="3.4"/>
      <ellipse cx="83.6" cy="181.8" class="FaderLed" rx="2.9" ry="3.4"/>
      <ellipse cx="83.6" cy="194.1" class="FaderLed" rx="2.9" ry="3.4"/>
    </g>
    <text x="297.6" y="256.2" fill="currentColor" class="Cuelist8 Cuelist-Box" font-size="8.4" style="line-height:125%" transform="scale(1.07249 .93241)">
      <tspan x="297.6" y="256.2" class="Cuelist8-1 Cuelist-Line" style="text-align:center" text-anchor="middle">Line 1</tspan>
      <tspan x="297.6" y="266.6" class="Cuelist8-2 Cuelist-Line" style="text-align:center" text-anchor="middle">Line 2</tspan>
      <tspan x="297.6" y="277.1" class="Cuelist8-3 Cuelist-Line" style="text-align:center" text-anchor="middle">Line 3</tspan>
    </text>
  </g>
  <g class="Fader9">
    <rect width="29.1" height="28.8" x="337.1" y="52" stroke="#000" stroke-linejoin="round" class="BlackSquare" ry="4"/>
    <rect width="29.1" height="28.8" x="337.4" y="19.4" stroke="#000" stroke-linejoin="round" class="BlackSquare" ry="4"/>
    <rect width="28.1" height="121.2" x="338.1" y="102.6" stroke="#000" stroke-linejoin="round" ry="3"/>
    <rect width="29.1" height="28.8" x="337.2" y="231.4" fill="#eaeaea" stroke="#515151" stroke-linejoin="round" class="GreyButton" ry="4"/>
    <path fill="#fff" d="M354.1 33.5q0 .8-.2 1.5l-.5 1.2q-.4.5-1 .8-.6.2-1.4.2h-.8v-.9l.4.1.5.1q1 0 1.5-.6t.6-1.6l-.7.4H351q-.4 0-.7-.3-.4-.3-.6-.7l-.1-1q0-1 .6-1.6.7-.6 1.6-.6.5 0 .9.2.4.1.7.4l.5 1q.2.5.2 1.4zm-.8-.2q0-.7-.2-1-.1-.5-.4-.7l-.4-.3h-.5q-.6 0-1 .3-.4.4-.4 1.1l.1.7.4.4q.2.2.5.2h1.2l.6-.3v-.4z"/>
    <g transform="translate(259.6)">
      <ellipse cx="83.6" cy="218.8" class="FaderLed" rx="2.9" ry="3.4"/>
      <ellipse cx="83.6" cy="120" class="FaderLed" rx="2.9" ry="3.4"/>
      <ellipse cx="83.6" cy="132.3" class="FaderLed" rx="2.9" ry="3.4"/>
      <ellipse cx="83.6" cy="206.5" class="FaderLed" rx="2.9" ry="3.4"/>
      <ellipse cx="83.6" cy="107.6" class="FaderLed" rx="2.9" ry="3.4"/>
      <ellipse cx="83.6" cy="144.7" class="FaderLed" rx="2.9" ry="3.4"/>
      <ellipse cx="83.6" cy="157" class="FaderLed" rx="2.9" ry="3.4"/>
      <ellipse cx="83.6" cy="169.4" class="FaderLed" rx="2.9" ry="3.4"/>
      <ellipse cx="83.6" cy="181.8" class="FaderLed" rx="2.9" ry="3.4"/>
      <ellipse cx="83.6" cy="194.1" class="FaderLed" rx="2.9" ry="3.4"/>
    </g>
    <text x="327.8" y="256.2" fill="currentColor" class="Cuelist9 Cuelist-Box" font-size="8.4" style="line-height:125%" transform="scale(1.07249 .93241)">
      <tspan x="327.8" y="256.2" class="Cuelist9-1 Cuelist-Line" style="text-align:center" text-anchor="middle">Line 1</tspan>
      <tspan x="327.8" y="266.6" class="Cuelist9-2 Cuelist-Line" style="text-align:center" text-anchor="middle">Line 2</tspan>
      <tspan x="327.8" y="277.1" class="Cuelist9-3 Cuelist-Line" style="text-align:center" text-anchor="middle">Line 3</tspan>
    </text>
  </g>
  <g class="Fader10">
    <rect width="29.1" height="28.8" x="369.5" y="52" stroke="#000" stroke-linejoin="round" class="BlackSquare" ry="4"/>
    <rect width="29.1" height="28.8" x="369.8" y="19.4" stroke="#000" stroke-linejoin="round" class="BlackSquare" ry="4"/>
    <rect width="28.1" height="121.2" x="370.5" y="102.6" stroke="#000" stroke-linejoin="round" ry="3"/>
    <rect width="29.1" height="28.8" x="369.6" y="231.4" fill="#eaeaea" stroke="#515151" stroke-linejoin="round" class="GreyButton" ry="4"/>
    <path fill="#fff" d="M383.4 37.1h-3.5v-.6h1.3V32h-1.3v-.6h.5l.5-.1.3-.3.2-.5h.6v5.9h1.4zm6-3.2q0 1.7-.6 2.5-.5.9-1.7.9-1.1 0-1.7-.9-.5-.8-.5-2.5t.5-2.6q.6-.8 1.7-.8 1.2 0 1.7.9.6.8.6 2.5zm-1.2 2q.2-.4.2-.9l.1-1.1v-1.2l-.3-.8q-.1-.3-.4-.5-.2-.2-.7-.2-.4 0-.6.2l-.5.5-.2.9V35q0 .5.2.8l.4.6.7.1.7-.1q.3-.2.4-.5z"/>
    <g transform="translate(292)">
      <ellipse cx="83.6" cy="218.8" class="FaderLed" rx="2.9" ry="3.4"/>
      <ellipse cx="83.6" cy="120" class="FaderLed" rx="2.9" ry="3.4"/>
      <ellipse cx="83.6" cy="132.3" class="FaderLed" rx="2.9" ry="3.4"/>
      <ellipse cx="83.6" cy="206.5" class="FaderLed" rx="2.9" ry="3.4"/>
      <ellipse cx="83.6" cy="107.6" class="FaderLed" rx="2.9" ry="3.4"/>
      <ellipse cx="83.6" cy="144.7" class="FaderLed" rx="2.9" ry="3.4"/>
      <ellipse cx="83.6" cy="157" class="FaderLed" rx="2.9" ry="3.4"/>
      <ellipse cx="83.6" cy="169.4" class="FaderLed" rx="2.9" ry="3.4"/>
      <ellipse cx="83.6" cy="181.8" class="FaderLed" rx="2.9" ry="3.4"/>
      <ellipse cx="83.6" cy="194.1" class="FaderLed" rx="2.9" ry="3.4"/>
    </g>
    <text x="358" y="256.2" fill="currentColor" class="Cuelist10 Cuelist-Box" font-size="8.4" style="line-height:125%" transform="scale(1.07249 .93241)">
      <tspan x="358" y="256.2" class="Cuelist10-1 Cuelist-Line" style="text-align:center" text-anchor="middle">Line 1</tspan>
      <tspan x="358" y="266.6" class="Cuelist10-2 Cuelist-Line" style="text-align:center" text-anchor="middle">Line 2</tspan>
      <tspan x="358" y="277.1" class="Cuelist10-3 Cuelist-Line" style="text-align:center" text-anchor="middle">Line 3</tspan>
    </text>
  </g>
  <g class="Fader11">
    <rect width="29.1" height="28.8" x="404" y="102.1" fill="#eaeaea" stroke="#515151" stroke-linejoin="round" class="GreyButton" ry="4"/>
    <text x="390.1" y="117.5" fill="currentColor" class="Cuelist11 Cuelist-Box" font-size="8.4" style="line-height:125%" transform="scale(1.07249 .93241)">
      <tspan x="390.1" y="117.5" class="Cuelist11-1 Cuelist-Line" style="text-align:center" text-anchor="middle">Line 1</tspan>
      <tspan x="390.1" y="127.9" class="Cuelist11-2 Cuelist-Line" style="text-align:center" text-anchor="middle">Line 2</tspan>
      <tspan x="390.1" y="138.4" class="Cuelist11-3 Cuelist-Line" style="text-align:center" text-anchor="middle">Line 3</tspan>
    </text>
  </g>
  <g class="Fader12">
    <rect width="29.1" height="28.8" x="436.8" y="102.1" fill="#eaeaea" stroke="#515151" stroke-linejoin="round" class="Cuelist-Box GreyButton" font-size="8.4" ry="4" style="line-height:125%"/>
    <text x="420.7" y="117.5" fill="currentColor" class="Cuelist12 Cuelist-Box" font-size="8.4" style="line-height:125%" transform="scale(1.07249 .93241)">
      <tspan x="420.7" y="117.5" class="Cuelist12-1 Cuelist-Line" style="text-align:center" text-anchor="middle">Line 1</tspan>
      <tspan x="420.7" y="127.9" class="Cuelist12-2 Cuelist-Line" style="text-align:center" text-anchor="middle">Line 2</tspan>
      <tspan x="420.7" y="138.4" class="Cuelist12-3 Cuelist-Line" style="text-align:center" text-anchor="middle">Line 3</tspan>
    </text>
  </g>
  <g class="Fader13">
    <rect width="29.1" height="28.8" x="404" y="134.4" fill="#eaeaea" stroke="#515151" stroke-linejoin="round" class="GreyButton" ry="4"/>
    <text x="390.1" y="152.1" fill="currentColor" class="Cuelist13 Cuelist-Box" font-size="8.4" style="line-height:125%" transform="scale(1.07249 .93241)">
      <tspan x="390.1" y="152.1" class="Cuelist13-1 Cuelist-Line" style="text-align:center" text-anchor="middle">Line 1</tspan>
      <tspan x="390.1" y="162.5" class="Cuelist13-2 Cuelist-Line" style="text-align:center" text-anchor="middle">Line 2</tspan>
      <tspan x="390.1" y="173" class="Cuelist13-3 Cuelist-Line" style="text-align:center" text-anchor="middle">Line 3</tspan>
    </text>
  </g>
  <g class="Fader14">
    <rect width="29.1" height="28.8" x="436.8" y="134.4" fill="#eaeaea" stroke="#515151" stroke-linejoin="round" class="GreyButton" ry="4"/>
    <text x="420.7" y="152.1" fill="currentColor" class="Cuelist14 Cuelist-Box" font-size="8.4" style="line-height:125%" transform="scale(1.07249 .93241)">
      <tspan x="420.7" y="152.1" class="Cuelist14-1 Cuelist-Line" style="text-align:center" text-anchor="middle">Line 1</tspan>
      <tspan x="420.7" y="162.5" class="Cuelist14-2 Cuelist-Line" style="text-align:center" text-anchor="middle">Line 2</tspan>
      <tspan x="420.7" y="173" class="Cuelist14-3 Cuelist-Line" style="text-align:center" text-anchor="middle">Line 3</tspan>
    </text>
  </g>
  <g class="Fader15">
    <rect width="29.1" height="28.8" x="404" y="166.6" fill="#eaeaea" stroke="#515151" stroke-linejoin="round" class="GreyButton" ry="4"/>
    <text x="390.1" y="186.7" fill="currentColor" class="Cuelist15 Cuelist-Box" font-size="8.4" style="line-height:125%" transform="scale(1.07249 .93241)">
      <tspan x="390.1" y="186.7" class="Cuelist15-1 Cuelist-Line" style="text-align:center" text-anchor="middle">Line 1</tspan>
      <tspan x="390.1" y="197.1" class="Cuelist15-2 Cuelist-Line" style="text-align:center" text-anchor="middle">Line 2</tspan>
      <tspan x="390.1" y="207.6" class="Cuelist15-3 Cuelist-Line" style="text-align:center" text-anchor="middle">Line 3</tspan>
    </text>
  </g>
  <g class="Fader16">
    <rect width="29.1" height="28.8" x="436.8" y="166.6" fill="#eaeaea" stroke="#515151" stroke-linejoin="round" class="Cuelist-Box GreyButton" font-size="8.4" ry="4" style="line-height:125%"/>
    <text x="420.7" y="186.7" fill="currentColor" class="Cuelist16 Cuelist-Box" font-size="8.4" style="line-height:125%" transform="scale(1.07249 .93241)">
      <tspan x="420.7" y="186.7" class="Cuelist16-1 Cuelist-Line" style="text-align:center" text-anchor="middle">Line 1</tspan>
      <tspan x="420.7" y="197.1" class="Cuelist16-2 Cuelist-Line" style="text-align:center" text-anchor="middle">Line 2</tspan>
      <tspan x="420.7" y="207.6" class="Cuelist16-3 Cuelist-Line" style="text-align:center" text-anchor="middle">Line 3</tspan>
    </text>
  </g>
  <g class="Fader17">
    <rect width="29.1" height="28.8" x="404" y="198.9" fill="#eaeaea" stroke="#515151" stroke-linejoin="round" class="GreyButton" ry="4"/>
    <text x="390.1" y="221.3" fill="currentColor" class="Cuelist17 Cuelist-Box" font-size="8.4" style="line-height:125%" transform="scale(1.07249 .93241)">
      <tspan x="390.1" y="221.3" class="Cuelist17-1 Cuelist-Line" style="text-align:center" text-anchor="middle">Line 1</tspan>
      <tspan x="390.1" y="231.7" class="Cuelist17-2 Cuelist-Line" style="text-align:center" text-anchor="middle">Line 2</tspan>
      <tspan x="390.1" y="242.2" class="Cuelist17-3 Cuelist-Line" style="text-align:center" text-anchor="middle">Line 3</tspan>
    </text>
  </g>
  <g class="Fader18">
    <rect width="29.1" height="28.8" x="436.8" y="198.9" fill="#eaeaea" stroke="#515151" stroke-linejoin="round" class="Cuelist-Box GreyButton" font-size="8.4" ry="4" style="line-height:125%"/>
    <text x="420.7" y="221.3" fill="currentColor" class="Cuelist18 Cuelist-Box" font-size="8.4" style="line-height:125%" transform="scale(1.07249 .93241)">
      <tspan x="420.7" y="221.3" class="Cuelist18-1 Cuelist-Line" style="text-align:center" text-anchor="middle">Line 1</tspan>
      <tspan x="420.7" y="231.7" class="Cuelist18-2 Cuelist-Line" style="text-align:center" text-anchor="middle">Line 2</tspan>
      <tspan x="420.7" y="242.2" class="Cuelist18-3 Cuelist-Line" style="text-align:center" text-anchor="middle">Line 3</tspan>
    </text>
  </g>
  <g class="Fader19">
    <rect width="29.1" height="28.8" x="404" y="231.1" fill="#eaeaea" stroke="#515151" stroke-linejoin="round" class="GreyButton" ry="4"/>
    <text x="390.1" y="255.9" fill="currentColor" class="Cuelist19 Cuelist-Box" font-size="8.4" style="line-height:125%" transform="scale(1.07249 .93241)">
      <tspan x="390.1" y="255.9" class="Cuelist19-1 Cuelist-Line" style="text-align:center" text-anchor="middle">Line 1</tspan>
      <tspan x="390.1" y="266.3" class="Cuelist19-2 Cuelist-Line" style="text-align:center" text-anchor="middle">Line 2</tspan>
      <tspan x="390.1" y="276.8" class="Cuelist19-3 Cuelist-Line" style="text-align:center" text-anchor="middle">Line 3</tspan>
    </text>
  </g>
  <g class="Fader20">
    <rect width="29.1" height="28.8" x="436.8" y="231.1" fill="#eaeaea" stroke="#515151" stroke-linejoin="round" class="GreyButton" ry="4"/>
    <text x="420.7" y="255.9" fill="currentColor" class="Cuelist20 Cuelist-Box" font-size="8.4" style="line-height:125%" transform="scale(1.07249 .93241)">
      <tspan x="420.7" y="255.9" class="Cuelist20-1 Cuelist-Line" style="text-align:center" text-anchor="middle">Line 1</tspan>
      <tspan x="420.7" y="266.3" class="Cuelist20-2 Cuelist-Line" style="text-align:center" text-anchor="middle">Line 2</tspan>
      <tspan x="420.7" y="276.8" class="Cuelist20-3 Cuelist-Line" style="text-align:center" text-anchor="middle">Line 3</tspan>
    </text>
  </g>
</svg>