<svg xmlns="http://www.w3.org/2000/svg" xmlns:xlink="http://www.w3.org/1999/xlink" width="1999pt" height="883pt" viewBox="0 0 1999 883" version="1.1">
<g id="surface1">
<path style=" stroke:none;fill-rule:nonzero;fill:rgb(100%,83.529412%,1.176471%);fill-opacity:1;" d="M 1301.285156 128.289062 L 1493.507812 321.527344 L 1820.707031 0 Z M 1301.285156 128.289062 "/>
<path style=" stroke:none;fill-rule:nonzero;fill:rgb(0%,0%,0%);fill-opacity:1;" d="M 0.496094 210.511719 L 190.160156 210.511719 L 270.761719 531.71875 L 347.84375 210.511719 L 529.832031 209.871094 L 529.832031 706.398438 L 418.527344 706.398438 L 418.527344 345.203125 L 317.777344 706.398438 L 209.351562 706.398438 L 111.160156 342.003906 L 111.160156 706.398438 L 0.496094 706.398438 Z M 0.496094 210.511719 "/>
<path style=" stroke:none;fill-rule:nonzero;fill:rgb(0%,0%,0%);fill-opacity:1;" d="M 883.574219 706.398438 L 883.574219 479.25 C 883.574219 442.460938 876.855469 410.148438 857.347656 389.03125 C 825.363281 353.519531 766.832031 349.359375 739.324219 349.359375 C 683.675781 349.359375 636.335938 365.039062 612.351562 392.230469 C 589.320312 419.105469 589.320312 448.539062 588.679688 464.214844 L 698.066406 464.214844 C 697.425781 424.863281 717.578125 411.746094 739.007812 411.746094 C 773.867188 411.746094 778.027344 445.980469 777.386719 482.769531 C 645.933594 476.691406 569.171875 511.246094 569.171875 605.621094 C 569.171875 666.730469 602.113281 712.796875 676.957031 712.796875 C 739.644531 712.796875 761.074219 679.847656 775.148438 656.492188 L 775.148438 705.761719 L 883.574219 705.761719 Z M 777.386719 543.558594 C 778.027344 557.953125 777.707031 586.105469 768.429688 608.183594 C 756.917969 635.695312 735.488281 641.136719 723.335938 641.136719 C 695.828125 641.136719 681.433594 619.699219 681.433594 594.425781 C 681.753906 545.15625 728.769531 544.195312 777.386719 543.558594 "/>
<path style=" stroke:none;fill-rule:nonzero;fill:rgb(0%,0%,0%);fill-opacity:1;" d="M 934.109375 361.199219 L 1039.976562 361.199219 L 1041.894531 417.824219 C 1063.964844 352.238281 1123.132812 358.320312 1149.359375 358.957031 L 1149.359375 469.972656 C 1141.296875 468.898438 1133.183594 468.257812 1125.054688 468.054688 C 1055.328125 468.054688 1045.414062 523.722656 1045.414062 560.511719 L 1045.414062 706.398438 L 934.429688 706.398438 Z M 934.109375 361.199219 "/>
<path style=" stroke:none;fill-rule:nonzero;fill:rgb(0%,0%,0%);fill-opacity:1;" d="M 1383.484375 362.476562 L 1383.484375 464.855469 L 1309.921875 464.855469 L 1309.921875 565.3125 C 1310.558594 608.183594 1310.558594 627.699219 1354.378906 627.699219 C 1363.917969 627.894531 1373.453125 627.144531 1382.84375 625.457031 L 1382.84375 706.398438 C 1367.8125 709.28125 1347.660156 712.480469 1308.640625 712.480469 C 1217.488281 712.480469 1199.257812 678.246094 1199.257812 611.703125 L 1198.617188 265.539062 L 1311.199219 265.539062 L 1311.199219 362.15625 L 1383.484375 362.15625 Z M 1383.484375 362.476562 "/>
<path style=" stroke:none;fill-rule:nonzero;fill:rgb(0%,0%,0%);fill-opacity:1;" d="M 1435.617188 361.199219 L 1549.160156 361.199219 L 1549.160156 706.398438 L 1435.617188 706.398438 Z M 1435.617188 361.199219 "/>
<path style=" stroke:none;fill-rule:nonzero;fill:rgb(0%,0%,0%);fill-opacity:1;" d="M 1604.171875 361.199219 L 1714.199219 361.199219 L 1715.476562 413.347656 C 1729.550781 387.433594 1753.539062 353.199219 1816.546875 353.199219 C 1927.851562 353.199219 1925.292969 449.179688 1925.292969 496.847656 L 1925.292969 706.71875 L 1813.988281 706.71875 L 1813.988281 507.726562 C 1813.988281 483.730469 1813.988281 434.460938 1767.292969 434.460938 C 1716.4375 434.460938 1716.4375 495.246094 1716.4375 507.726562 L 1716.4375 706.71875 L 1603.855469 706.71875 L 1603.855469 361.199219 Z M 1604.171875 361.199219 "/>
<path style=" stroke:none;fill-rule:nonzero;fill:rgb(0%,0%,0%);fill-opacity:1;" d="M 1952.480469 308.730469 L 1958.238281 308.730469 C 1961.753906 308.730469 1967.511719 308.730469 1967.511719 302.972656 C 1967.535156 300.957031 1966.421875 299.101562 1964.632812 298.171875 C 1963.035156 297.53125 1962.394531 297.53125 1956.636719 297.53125 L 1952.160156 297.53125 L 1952.160156 308.730469 Z M 1958.554688 289.855469 C 1962.230469 289.523438 1965.933594 289.957031 1969.429688 291.132812 C 1974.257812 292.714844 1977.496094 297.25 1977.425781 302.332031 C 1977.296875 307.652344 1973.632812 312.234375 1968.472656 313.527344 C 1971.351562 315.128906 1973.269531 316.089844 1974.226562 322.808594 C 1974.699219 327.785156 1975.996094 332.652344 1978.066406 337.203125 L 1966.871094 337.203125 C 1965.457031 333.957031 1964.59375 330.496094 1964.3125 326.964844 C 1963.035156 318.328125 1962.714844 317.046875 1954.398438 316.726562 L 1952.160156 316.726562 L 1952.160156 336.882812 L 1942.246094 336.882812 L 1942.246094 290.175781 L 1958.554688 290.175781 Z M 1958.554688 289.855469 "/>
<path style="fill:none;stroke-width:2.17;stroke-linecap:butt;stroke-linejoin:miter;stroke:rgb(0%,0%,0%);stroke-opacity:1;stroke-miterlimit:4;" d="M 623.600481 98.199727 C 623.600481 92.069189 618.674923 87.099802 612.600108 87.099802 C 606.525293 87.099802 601.599735 92.069189 601.599735 98.199727 C 601.599735 104.330266 606.525293 109.299653 612.600108 109.299653 C 618.674923 109.299653 623.600481 104.330266 623.600481 98.199727 Z M 623.600481 98.199727 " transform="matrix(3.1984,0,0,3.199275,0.495752,0)"/>
</g>
</svg>