<svg viewBox="0 0 60 60">
  <defs>
    <filter id="b" x="-.084" width="1.168" y="-2.179" height="5.357" color-interpolation-filters="sRGB">
      <feGaussianBlur stdDeviation="1.383"/>
    </filter>
    <filter id="a" x="-.107" width="1.214" y="-.137" height="1.274" color-interpolation-filters="sRGB">
      <feGaussianBlur stdDeviation="2.169"/>
    </filter>
    <filter id="c" x="-.072" width="1.144" y="-.072" height="1.144" color-interpolation-filters="sRGB">
      <feGaussianBlur stdDeviation=".681"/>
    </filter>
  </defs>
  <g transform="translate(0 -992.362)">
    <rect width="48.74" height="38.007" x="69.069" y="995.116" ry="7.829" rx="7.955" transform="matrix(.88858 0 0 .88978 -53.028 113.321)" fill="none" stroke="#000" stroke-width="2.828" filter="url(#a)"/>
    <rect width="39.404" height="1.524" x="73.737" y="1048.65" rx="0" ry="0" transform="matrix(.90165 0 0 1.13133 -54.186 -140.704)" opacity=".5" fill="none" stroke="#000" stroke-width="2.861" filter="url(#b)"/>
    <g transform="translate(3.782 128.642) scale(.87393)" fill="none" fill-opacity="0" stroke="#fff">
      <rect rx="7.955" ry="7.829" y="995.677" x="5.63" height="38.007" width="48.74" stroke-width="5.5" stroke-linecap="round" stroke-linejoin="round"/>
      <rect ry="0" rx="0" y="1049.211" x="10.298" height="1.524" width="39.404" stroke-width="3.255"/>
    </g>
    <path d="M40.393 1004.041l-16.168 8.657c.611.263 1.14.683 1.666 1.12zm.956.874l-13.273 11.798c.348.785.6 1.564.6 2.349zm-18.626 8.74c-.376-.02-.73.074-1.038.273-.526.348-1.912 1.201-2.349 1.638-.62.553-.754 1.44-.655 2.24.11.877.464 1.802 1.065 2.703.6.902 1.335 1.608 2.103 2.049.768.44 1.717.665 2.513.136.099-.065.194-.14.273-.218.338-.202.655-.37 1.037-.629-.044 1.031-.239 1.916-.573 2.458-.348.526-.628.71-1.065.71-.174 0-.608-.184-.956-1.147-.526 0-1.14-.256-1.666-.518.178.617.413 1.184.683 1.665-.062.031-1.72.891-1.72 1.748h7.865c0-.857-1.66-1.717-1.721-1.748.498-1.16.628-2.751.519-4.342.6-1.041.32-2.84-.82-4.479-1.047-1.509-2.372-2.482-3.495-2.54zm-2.24 3.195c.01-.01.222-.044.683.218.461.263 1.035.795 1.502 1.502.468.707.727 1.468.792 1.994.065.526-.044.648-.054.655-.01.01-.222.1-.683-.164-.46-.262-1.034-.822-1.502-1.529-.468-.707-.755-1.413-.82-1.939-.064-.526.072-.73.082-.737z" opacity=".37" stroke="#000" fill="none" filter="url(#c)"></path>
    <path d="M40.393 1004.041l-16.168 8.657c.611.263 1.14.683 1.666 1.12zm.956.874l-13.273 11.798c.348.785.6 1.564.6 2.349zm-18.626 8.74c-.376-.02-.73.074-1.038.273-.526.348-1.912 1.201-2.349 1.638-.62.553-.754 1.44-.655 2.24.11.877.464 1.802 1.065 2.703.6.902 1.335 1.608 2.103 2.049.768.44 1.717.665 2.513.136.099-.065.194-.14.273-.218.338-.202.655-.37 1.037-.629-.044 1.031-.239 1.916-.573 2.458-.348.526-.628.71-1.065.71-.174 0-.608-.184-.956-1.147-.526 0-1.14-.256-1.666-.518.178.617.413 1.184.683 1.665-.062.031-1.72.891-1.72 1.748h7.865c0-.857-1.66-1.717-1.721-1.748.498-1.16.628-2.751.519-4.342.6-1.041.32-2.84-.82-4.479-1.047-1.509-2.372-2.482-3.495-2.54zm-2.24 3.195c.01-.01.222-.044.683.218.461.263 1.035.795 1.502 1.502.468.707.727 1.468.792 1.994.065.526-.044.648-.054.655-.01.01-.222.1-.683-.164-.46-.262-1.034-.822-1.502-1.529-.468-.707-.755-1.413-.82-1.939-.064-.526.072-.73.082-.737z" fill="#fff"></path>
  </g>
</svg>