<svg viewBox="0 0 60 60">
   <defs>
      <filter id="b" x="-.084" width="1.168" y="-2.179" height="5.357" color-interpolation-filters="sRGB">
         <feGaussianBlur stdDeviation="1.383"/>
      </filter>
      <filter id="a" x="-.107" width="1.214" y="-.137" height="1.274" color-interpolation-filters="sRGB">
         <feGaussianBlur stdDeviation="2.169"/>
      </filter>
      <filter id="c" x="-.144" width="1.288" y="-.144" height="1.288" color-interpolation-filters="sRGB">
         <feGaussianBlur stdDeviation="5.816"/>
      </filter>
   </defs>
   <g fill="none" stroke="#000">
      <rect width="48.74" height="38.007" x="69.069" y="995.116" ry="7.829" rx="7.955" transform="matrix(.88858 0 0 .88978 -53.028 -879.041)" stroke-width="2.828" filter="url(#a)"/>
      <rect width="39.404" height="1.524" x="73.737" y="1048.65" rx="0" ry="0" transform="matrix(.90165 0 0 1.13133 -54.186 -1133.066)" opacity=".5" stroke-width="2.861" filter="url(#b)"/>
   </g>
   <g fill="none" stroke="#fff">
      <rect width="42.595" height="33.215" x="8.702" y="6.432" ry="6.842" rx="6.952" stroke-width="4.807" stroke-linecap="round" stroke-linejoin="round"/>
      <rect width="34.436" height="1.332" x="12.782" y="53.217" rx="0" ry="0" stroke-width="2.845"/>
   </g>
   <g transform="translate(15.228 8.267) scale(.21624)" filter="url(#c)" opacity=".5">
      <path class="cls-2" d="M90.18 94.37a38.45 38.45 0 0 1-47.72 10.86 4.264 4.264 0 1 0-4.87 7A37.88 37.88 0 0 0 88.93 96.9c.45-.83.87-1.67 1.25-2.53z"></path>
      <path class="cls-2" d="M55.39 86.77a27.44 27.44 0 0 0 24.68-4.45A23.79 23.79 0 0 1 53 90.26M55.39 86.77A2.13 2.13 0 0 0 53 90.26" data-name="ARC"></path>
      <path class="cls-2" d="M45.88 100.36a3.192 3.192 0 1 1 3.66-5.23 35.27 35.27 0 0 0 35.17-7.27 29.42 29.42 0 0 1-38.83 12.5zM42.26 90.18A38.45 38.45 0 0 1 31.4 42.46a4.264 4.264 0 0 0-7-4.87 37.88 37.88 0 0 0 15.3 51.34c.86.45 1.7.87 2.56 1.25zM46.37 53a2.13 2.13 0 0 1 3.49 2.44 27.44 27.44 0 0 0 4.45 24.68A23.79 23.79 0 0 1 46.37 53z" data-name="ARC"></path>
      <path class="cls-2" d="M48.77 84.71a29.42 29.42 0 0 1-12.5-38.83 3.192 3.192 0 1 1 5.23 3.66 35.27 35.27 0 0 0 7.27 35.17zM46.45 42.26A38.45 38.45 0 0 1 94.17 31.4a4.264 4.264 0 0 0 4.87-7A37.88 37.88 0 0 0 47.7 39.73c-.45.83-.87 1.67-1.25 2.53zM56.56 54.31a23.79 23.79 0 0 1 27.12-7.94 2.13 2.13 0 0 1-2.44 3.49 27.44 27.44 0 0 0-24.68 4.45z" data-name="ARC"></path>
      <path class="cls-2" d="M51.92 48.77a29.42 29.42 0 0 1 38.83-12.5 3.192 3.192 0 1 1-3.66 5.23 35.27 35.27 0 0 0-35.17 7.27zM94.37 46.45a38.45 38.45 0 0 1 10.86 47.72 4.264 4.264 0 0 0 7 4.87A37.88 37.88 0 0 0 96.9 47.7c-.83-.45-1.67-.87-2.53-1.25zM86.77 81.24a27.44 27.44 0 0 0-4.45-24.68 23.79 23.79 0 0 1 7.94 27.12M86.77 81.24a2.13 2.13 0 0 0 3.49 2.44" data-name="ARC"></path>
      <path class="cls-2" d="M87.86 51.92a29.42 29.42 0 0 1 12.5 38.83 3.192 3.192 0 1 1-5.23-3.66 35.27 35.27 0 0 0-7.27-35.17z" data-name="ARC"></path>
   </g>
   <g fill="#fffbfb">
      <path d="M34.729 28.674a8.314 8.314 0 0 1-10.32 2.348.922.922 0 1 0-1.052 1.514 8.191 8.191 0 0 0 11.101-3.315c.098-.18.189-.361.27-.547z" class="cls-2"></path>
      <path d="M27.206 27.03a5.934 5.934 0 0 0 5.337-.962 5.144 5.144 0 0 1-5.854 1.717M27.206 27.03a.46.46 0 0 0-.517.755" class="cls-2" data-name="ARC"></path>
      <path d="M25.15 29.97a.69.69 0 1 1 .79-1.132 7.627 7.627 0 0 0 7.606-1.572 6.362 6.362 0 0 1-8.397 2.703zM24.366 27.768a8.314 8.314 0 0 1-2.348-10.32.922.922 0 0 0-1.514-1.052 8.191 8.191 0 0 0 3.309 11.102c.186.097.367.188.553.27zM25.255 19.728a.46.46 0 0 1 .755.528 5.934 5.934 0 0 0 .962 5.336 5.144 5.144 0 0 1-1.717-5.864z" class="cls-2" data-name="ARC"></path>
      <path d="M25.774 26.585a6.362 6.362 0 0 1-2.703-8.397.69.69 0 1 1 1.131.792 7.627 7.627 0 0 0 1.572 7.605zM25.273 17.406a8.314 8.314 0 0 1 10.319-2.349.922.922 0 0 0 1.053-1.514 8.191 8.191 0 0 0-11.102 3.315c-.097.18-.188.362-.27.548zM27.459 20.011a5.144 5.144 0 0 1 5.864-1.717.46.46 0 0 1-.527.755 5.934 5.934 0 0 0-5.337.962z" class="cls-2" data-name="ARC"></path>
      <path d="M26.455 18.813a6.362 6.362 0 0 1 8.397-2.703.69.69 0 1 1-.791 1.131 7.627 7.627 0 0 0-7.606 1.572zM35.635 18.312a8.314 8.314 0 0 1 2.348 10.319.922.922 0 0 0 1.514 1.053 8.191 8.191 0 0 0-3.315-11.102 7.551 7.551 0 0 0-.547-.27zM33.991 25.835a5.934 5.934 0 0 0-.962-5.337 5.144 5.144 0 0 1 1.717 5.864M33.991 25.835a.46.46 0 0 0 .755.527" class="cls-2" data-name="ARC"></path>
      <path d="M34.227 19.494a6.362 6.362 0 0 1 2.703 8.397.69.69 0 1 1-1.13-.791 7.627 7.627 0 0 0-1.573-7.606z" class="cls-2" data-name="ARC"></path>
   </g>
</svg>